<svg xmlns="http://www.w3.org/2000/svg" xmlns:xlink="http://www.w3.org/1999/xlink" width="100%" height="100%" version="1.1" viewBox="0 0 640 480"><title>comparison convolution correlation</title><desc>Visual comparison of convolution, cross-correlation and autocorrelation of two signals by CMG Lee.</desc><style type="text/css">text{fill:#000}#graph_ff,#graph_gf,#graph_gg{stroke:#000}#graph_f{stroke:#00f}#graph_g{stroke:red}.point_1{stroke:#c90;fill:#c90}.point_2{stroke:#0c0;fill:#0c0}.point_3{stroke:#09c;fill:#09c}#pointers{stroke:#999;fill:#999}</style><defs><path id="arrowhead" stroke="none" d="M -3,2 L 0,-1 L 3,2"/><g id="arrow_1" transform="scale(2)"><path d="M 0,0 V -5"/><use transform="translate(0, -5)" xlink:href="#arrowhead"/><use transform="scale(-1)" xlink:href="#arrowhead"/></g><g id="arrow_3" transform="scale(2)"><path d="M 0,0 V -15"/><use transform="translate(0,-15)" xlink:href="#arrowhead"/><use transform="scale(-1)" xlink:href="#arrowhead"/></g><g id="arrow_4" transform="scale(2)"><path d="M 0,0 V -20"/><use transform="translate(0,-20)" xlink:href="#arrowhead"/><use transform="scale(-1)" xlink:href="#arrowhead"/></g><g id="arrow_8" transform="scale(2)"><path d="M 0,0 V -40"/><use transform="translate(0,-40)" xlink:href="#arrowhead"/><use transform="scale(-1)" xlink:href="#arrowhead"/></g><g id="pointers" stroke-width="1"><g transform="translate(-40,0)"><path d="M 0 5 V 35"/><use transform="translate(0,5)" xlink:href="#arrowhead"/></g><g transform="translate(-20,0)"><path d="M 0 5 V 65"/><use transform="translate(0,5)" xlink:href="#arrowhead"/></g><g><path d="M 0 5 V 75"/><use transform="translate(0,5)" xlink:href="#arrowhead"/></g><g transform="translate(20,0)"><path d="M 0 5 V 65"/><use transform="translate(0,5)" xlink:href="#arrowhead"/></g><g transform="translate(40,0)"><path d="M 0 5 V 35"/><use transform="translate(0,5)" xlink:href="#arrowhead"/></g></g><path id="graph_f" d="M -55,0 H -10 V -22 V -20 H 10 V 0 H 55"/><path id="graph_g" d="M -55,0 H -10 V -20 L 10,0 H 55"/><path id="graph_gg" d="M -55,0 H -20 Q -10, 0 0,-20 Q 10, 0 20,0 H 55"/><path id="graph_gf" d="M -55,0 H -20 Q -10, 0 0,-20 Q 10,-20 20,0 H 55"/><path id="graph_ff" d="M -55,0 H -20 L 0,-40 L 20,0 H 55"/><use id="graph_f_rev" transform="scale(-1,1)" xlink:href="#graph_f"/><use id="graph_g_rev" transform="scale(-1,1)" xlink:href="#graph_g"/><use id="graph_fg" transform="scale(-1,1)" xlink:href="#graph_gf"/><use id="graph_big_f" transform="scale(2)" xlink:href="#graph_f"/><use id="graph_big_g" transform="scale(2)" xlink:href="#graph_g"/><use id="graph_big_f_rev" transform="scale(2)" xlink:href="#graph_f_rev"/><use id="graph_big_g_rev" transform="scale(2)" xlink:href="#graph_g_rev"/><use id="graph_big_fg" transform="scale(2)" xlink:href="#graph_fg"/><use id="graph_big_gg" transform="scale(2)" xlink:href="#graph_gg"/><use id="graph_big_gf" transform="scale(2)" xlink:href="#graph_gf"/><use id="graph_big_ff" transform="scale(2)" xlink:href="#graph_ff"/><clipPath id="clip_graph_f"><use xlink:href="#graph_f"/></clipPath><clipPath id="clip_graph_g"><use xlink:href="#graph_g"/></clipPath><clipPath id="clip_point"><rect width="70" height="30" x="-35" y="-25"/></clipPath><clipPath id="clip_set"><rect width="190" height="9999" x="-95" y="-4999"/></clipPath></defs><g fill="none" stroke-linejoin="round" stroke-width="2" font-family="Helvetica,Arial,sans-serif" font-size="24" text-anchor="middle"><circle cx="0" cy="0" r="99999" fill="#fff"/><g clip-path="url(#clip_set)" transform="translate(100,23)"><text x="0" y="0">Convolution</text><g transform="translate(0, 60)"><text x="-65" y="-20">f</text><use xlink:href="#graph_big_f"/></g><g transform="translate(0,110)"><text x="-65" y="-20">g</text><use xlink:href="#graph_big_g"/></g><g transform="translate(0,190)"><text x="-65" y="-20">f∗g</text><use xlink:href="#graph_big_fg"/><use class="point_1" transform="translate(-20,0)" xlink:href="#arrow_3"/><use class="point_2" transform="translate( 0,0)" xlink:href="#arrow_4"/><use class="point_3" transform="translate( 20,0)" xlink:href="#arrow_1"/><use xlink:href="#pointers"/><g clip-path="url(#clip_point)" transform="translate(-60,40)"><use xlink:href="#graph_f"/><use transform="translate(-20,0)" xlink:href="#graph_g_rev"/><use stroke-opacity=".5" xlink:href="#graph_f"/></g><g clip-path="url(#clip_point)" transform="translate(-45,70)"><g clip-path="url(#clip_graph_f)"><use class="point_1" transform="translate(-10,0)" xlink:href="#graph_g_rev"/></g><use xlink:href="#graph_f"/><use transform="translate(-10,0)" xlink:href="#graph_g_rev"/><use stroke-opacity=".5" xlink:href="#graph_f"/></g><g clip-path="url(#clip_point)" transform="translate(0,100)"><use xlink:href="#graph_f"/><use class="point_2" xlink:href="#graph_g_rev"/><use stroke-opacity=".5" xlink:href="#graph_f"/></g><g clip-path="url(#clip_point)" transform="translate(45,70)"><g clip-path="url(#clip_graph_f)"><use class="point_3" transform="translate(10,0)" xlink:href="#graph_g_rev"/></g><use xlink:href="#graph_f"/><use transform="translate(10,0)" xlink:href="#graph_g_rev"/><use stroke-opacity=".5" xlink:href="#graph_f"/></g><g clip-path="url(#clip_point)" transform="translate(60,40)"><use xlink:href="#graph_f"/><use transform="translate(20,0)" xlink:href="#graph_g_rev"/><use stroke-opacity=".5" xlink:href="#graph_f"/></g></g><g transform="translate(0,350)"><text x="-65" y="-20">g∗f</text><use xlink:href="#graph_big_fg"/><use class="point_1" transform="translate(-20,0)" xlink:href="#arrow_3"/><use class="point_2" transform="translate( 0,0)" xlink:href="#arrow_4"/><use class="point_3" transform="translate( 20,0)" xlink:href="#arrow_1"/><use xlink:href="#pointers"/><g clip-path="url(#clip_point)" transform="translate(-60,40)"><use xlink:href="#graph_g"/><use transform="translate(-20,0)" xlink:href="#graph_f_rev"/><use stroke-opacity=".5" xlink:href="#graph_g"/></g><g clip-path="url(#clip_point)" transform="translate(-45,70)"><g clip-path="url(#clip_graph_g)"><use class="point_1" transform="translate(-10,0)" xlink:href="#graph_f_rev"/></g><use xlink:href="#graph_g"/><use transform="translate(-10,0)" xlink:href="#graph_f_rev"/><use stroke-opacity=".5" xlink:href="#graph_g"/></g><g clip-path="url(#clip_point)" transform="translate(0,100)"><use class="point_2" xlink:href="#graph_g"/><use xlink:href="#graph_f_rev"/><use stroke-opacity=".5" xlink:href="#graph_g"/></g><g clip-path="url(#clip_point)" transform="translate(45,70)"><g clip-path="url(#clip_graph_g)"><use class="point_3" transform="translate(10,0)" xlink:href="#graph_f_rev"/></g><use xlink:href="#graph_g"/><use transform="translate(10,0)" xlink:href="#graph_f_rev"/><use stroke-opacity=".5" xlink:href="#graph_g"/></g><g clip-path="url(#clip_point)" transform="translate(60,40)"><use xlink:href="#graph_g"/><use transform="translate(20,0)" xlink:href="#graph_f_rev"/><use stroke-opacity=".5" xlink:href="#graph_g"/></g></g></g><g clip-path="url(#clip_set)" transform="translate(320,23)"><text x="0" y="0">Cross-correlation</text><g transform="translate(0, 60)"><text x="-65" y="-20">f</text><use xlink:href="#graph_big_f"/></g><g transform="translate(0,110)"><text x="-65" y="-20">g</text><use xlink:href="#graph_big_g"/></g><g transform="translate(0,190)"><text x="-65" y="-20">g⋆f</text><use xlink:href="#graph_big_gf"/><use class="point_1" transform="translate(-20,0)" xlink:href="#arrow_1"/><use class="point_2" transform="translate( 0,0)" xlink:href="#arrow_4"/><use class="point_3" transform="translate( 20,0)" xlink:href="#arrow_3"/><use xlink:href="#pointers"/><g clip-path="url(#clip_point)" transform="translate(-60,40)"><use xlink:href="#graph_f"/><use transform="translate(-20,0)" xlink:href="#graph_g"/><use stroke-opacity=".5" xlink:href="#graph_f"/></g><g clip-path="url(#clip_point)" transform="translate(-45,70)"><g clip-path="url(#clip_graph_f)"><use class="point_1" transform="translate(-10,0)" xlink:href="#graph_g"/></g><use xlink:href="#graph_f"/><use transform="translate(-10,0)" xlink:href="#graph_g"/><use stroke-opacity=".5" xlink:href="#graph_f"/></g><g clip-path="url(#clip_point)" transform="translate(0,100)"><use xlink:href="#graph_f"/><use class="point_2" xlink:href="#graph_g"/><use stroke-opacity=".5" xlink:href="#graph_f"/></g><g clip-path="url(#clip_point)" transform="translate(45,70)"><g clip-path="url(#clip_graph_f)"><use class="point_3" transform="translate(10,0)" xlink:href="#graph_g"/></g><use xlink:href="#graph_f"/><use transform="translate(10,0)" xlink:href="#graph_g"/><use stroke-opacity=".5" xlink:href="#graph_f"/></g><g clip-path="url(#clip_point)" transform="translate(60,40)"><use xlink:href="#graph_f"/><use transform="translate(20,0)" xlink:href="#graph_g"/><use stroke-opacity=".5" xlink:href="#graph_f"/></g></g><g transform="translate(0,350)"><text x="-65" y="-20">f⋆g</text><use xlink:href="#graph_big_fg"/><use class="point_1" transform="translate(-20,0)" xlink:href="#arrow_3"/><use class="point_2" transform="translate( 0,0)" xlink:href="#arrow_4"/><use class="point_3" transform="translate( 20,0)" xlink:href="#arrow_1"/><use xlink:href="#pointers"/><g clip-path="url(#clip_point)" transform="translate(-60,40)"><use xlink:href="#graph_g"/><use transform="translate(-20,0)" xlink:href="#graph_f"/><use stroke-opacity=".5" xlink:href="#graph_g"/></g><g clip-path="url(#clip_point)" transform="translate(-45,70)"><g clip-path="url(#clip_graph_g)"><use class="point_1" transform="translate(-10,0)" xlink:href="#graph_f"/></g><use xlink:href="#graph_g"/><use transform="translate(-10,0)" xlink:href="#graph_f"/><use stroke-opacity=".5" xlink:href="#graph_g"/></g><g clip-path="url(#clip_point)" transform="translate(0,100)"><use class="point_2" xlink:href="#graph_g"/><use xlink:href="#graph_f"/><use stroke-opacity=".5" xlink:href="#graph_g"/></g><g clip-path="url(#clip_point)" transform="translate(45,70)"><g clip-path="url(#clip_graph_g)"><use class="point_3" transform="translate(10,0)" xlink:href="#graph_f"/></g><use xlink:href="#graph_g"/><use transform="translate(10,0)" xlink:href="#graph_f"/><use stroke-opacity=".5" xlink:href="#graph_g"/></g><g clip-path="url(#clip_point)" transform="translate(60,40)"><use xlink:href="#graph_g"/><use transform="translate(20,0)" xlink:href="#graph_f"/><use stroke-opacity=".5" xlink:href="#graph_g"/></g></g></g><g clip-path="url(#clip_set)" transform="translate(540,23)"><text x="0" y="0">Autocorrelation</text><g transform="translate(0, 60)"><text x="-65" y="-20">f</text><use xlink:href="#graph_big_f"/></g><g transform="translate(0,110)"><text x="-65" y="-20">g</text><use xlink:href="#graph_big_g"/></g><g transform="translate(0,190)"><text x="-65" y="-20">f⋆f</text><use xlink:href="#graph_big_ff"/><use class="point_1" transform="translate(-20,0)" xlink:href="#arrow_4"/><use class="point_2" transform="translate( 0,0)" xlink:href="#arrow_8"/><use class="point_3" transform="translate( 20,0)" xlink:href="#arrow_4"/><use xlink:href="#pointers"/><g clip-path="url(#clip_point)" transform="translate(-60,40)"><use transform="translate(-20,0)" xlink:href="#graph_f"/><use stroke-opacity=".5" xlink:href="#graph_f"/></g><g clip-path="url(#clip_point)" transform="translate(-45,70)"><g clip-path="url(#clip_graph_f)"><use class="point_1" transform="translate(-10,0)" xlink:href="#graph_f"/></g><use transform="translate(-10,0)" xlink:href="#graph_f"/><use stroke-opacity=".5" xlink:href="#graph_f"/></g><g clip-path="url(#clip_point)" transform="translate(0,100)"><use class="point_2" xlink:href="#graph_f"/><use stroke-opacity=".5" xlink:href="#graph_f"/></g><g clip-path="url(#clip_point)" transform="translate(45,70)"><g clip-path="url(#clip_graph_f)"><use class="point_3" transform="translate(10,0)" xlink:href="#graph_f"/></g><use transform="translate(10,0)" xlink:href="#graph_f"/><use stroke-opacity=".5" xlink:href="#graph_f"/></g><g clip-path="url(#clip_point)" transform="translate(60,40)"><use transform="translate(20,0)" xlink:href="#graph_f"/><use stroke-opacity=".5" xlink:href="#graph_f"/></g></g><g transform="translate(0,350)"><text x="-65" y="-20">g⋆g</text><use xlink:href="#graph_big_gg"/><use class="point_1" transform="translate(-20,0)" xlink:href="#arrow_1"/><use class="point_2" transform="translate( 0,0)" xlink:href="#arrow_4"/><use class="point_3" transform="translate( 20,0)" xlink:href="#arrow_1"/><use xlink:href="#pointers"/><g clip-path="url(#clip_point)" transform="translate(-60,40)"><use transform="translate(-20,0)" xlink:href="#graph_g"/><use stroke-opacity=".5" xlink:href="#graph_g"/></g><g clip-path="url(#clip_point)" transform="translate(-45,70)"><g clip-path="url(#clip_graph_g)"><use class="point_1" transform="translate(-10,0)" xlink:href="#graph_g"/></g><use transform="translate(-10,0)" xlink:href="#graph_g"/><use stroke-opacity=".5" xlink:href="#graph_g"/></g><g clip-path="url(#clip_point)" transform="translate(0,100)"><use class="point_2" xlink:href="#graph_g"/><use stroke-opacity=".5" xlink:href="#graph_g"/></g><g clip-path="url(#clip_point)" transform="translate(45,70)"><g clip-path="url(#clip_graph_g)"><use class="point_3" transform="translate(10,0)" xlink:href="#graph_g"/></g><use transform="translate(10,0)" xlink:href="#graph_g"/><use stroke-opacity=".5" xlink:href="#graph_g"/></g><g clip-path="url(#clip_point)" transform="translate(60,40)"><use transform="translate(20,0)" xlink:href="#graph_g"/><use stroke-opacity=".5" xlink:href="#graph_g"/></g></g></g></g></svg>